<svg width="50" height="50" viewBox="0 0 50 50" fill="none" xmlns="http://www.w3.org/2000/svg">
<path d="M25 5.85938C24.4609 5.85938 24.0234 6.29688 24.0234 6.83594C24.0234 7.375 24.4609 7.8125 25 7.8125C25.5391 7.8125 25.9766 7.375 25.9766 6.83594C25.9766 6.29688 25.5391 5.85938 25 5.85938Z" fill="#429EC9"/>
<path d="M25 0C11.5675 0 0 11.4558 0 25C0 38.467 11.4935 50 25 50C38.4608 50 50 38.5052 50 25C50 11.4599 38.4366 0 25 0ZM45.2246 35.7968L44.6809 35.4826C44.2139 35.2127 43.6166 35.3728 43.3468 35.8397C43.077 36.3068 43.2369 36.9041 43.7039 37.1739L44.2099 37.4662C42.4378 40.133 40.1329 42.438 37.466 44.2101L37.1737 43.7041C36.904 43.2372 36.3068 43.077 35.8396 43.347C35.3727 43.6167 35.2127 44.2141 35.4825 44.6811L35.7967 45.2248C32.7357 46.9118 29.376 47.8694 25.9766 48.0238V47.0703C25.9766 46.531 25.5393 46.0938 25 46.0938C24.4607 46.0938 24.0234 46.531 24.0234 47.0703V48.0236C20.5038 47.8683 17.1591 46.8798 14.1867 45.254L14.5178 44.6806C14.7874 44.2134 14.6272 43.6162 14.1602 43.3466C13.6928 43.077 13.0957 43.237 12.8262 43.7043L12.5138 44.2455C9.83379 42.4756 7.52451 40.1664 5.75469 37.4864L6.2959 37.174C6.76299 36.9044 6.92314 36.3071 6.65342 35.84C6.38379 35.373 5.78662 35.2128 5.31953 35.4825L4.74609 35.8135C3.12012 32.841 2.13164 29.4962 1.97637 25.9766H2.92969C3.46895 25.9766 3.90625 25.5394 3.90625 25C3.90625 24.4606 3.46895 24.0234 2.92969 24.0234H1.97607C2.13252 20.5774 3.1123 17.2215 4.77266 14.202L5.31934 14.5176C5.78418 14.786 6.38252 14.6293 6.65332 14.1602C6.92305 13.6931 6.76299 13.0958 6.2959 12.8262L5.78369 12.5305C7.52637 9.90225 9.81231 7.59277 12.5329 5.78818L12.8263 6.29609C13.097 6.76465 13.6948 6.92207 14.1604 6.65322C14.6273 6.3835 14.7873 5.78613 14.5175 5.31914L14.2033 4.77539C17.2643 3.08818 20.624 2.13057 24.0234 1.97617V2.92969C24.0234 3.46904 24.4607 3.90625 25 3.90625C25.5393 3.90625 25.9766 3.46904 25.9766 2.92969V1.97617C29.3759 2.13057 32.7357 3.08818 35.7966 4.77539L35.4824 5.31914C35.2126 5.78613 35.3726 6.3835 35.8396 6.65322C36.3048 6.92197 36.9029 6.76475 37.1736 6.29609L37.467 5.78818C40.1875 7.59277 42.4733 9.90215 44.2161 12.5304L43.7038 12.8263C43.2368 13.096 43.0769 13.6933 43.3467 14.1604C43.6173 14.6289 44.2151 14.7864 44.6808 14.5176L45.2271 14.202C46.8876 17.2215 47.8673 20.5774 48.0238 24.0235H47.0703C46.5311 24.0235 46.0938 24.4607 46.0938 25.0001C46.0938 25.5395 46.5311 25.9767 47.0703 25.9767H48.0238C47.8694 29.3761 46.9118 32.7359 45.2246 35.7968Z" fill="#429EC9"/>
<path d="M29.0984 6.31516C28.5724 6.19622 28.0494 6.526 27.9303 7.05208C27.8112 7.57805 28.1411 8.101 28.6672 8.22004C36.2487 9.93625 42.1875 17.3069 42.1875 25C42.1875 25.5394 42.6248 25.9766 43.164 25.9766C43.7033 25.9766 44.1406 25.5394 44.1406 25C44.1406 16.1921 37.3822 8.19026 29.0984 6.31516Z" fill="#429EC9"/>
<path d="M25.0977 10.3527C16.9481 10.2994 10.3516 16.911 10.3516 25C10.3516 33.0879 16.9197 39.6485 25 39.6485C33.0928 39.6485 39.6484 33.0695 39.6484 25C39.6484 16.9726 33.1541 10.4053 25.0977 10.3527ZM34.187 16.2481L29.3986 19.0412C28.9573 19.2986 28.5669 19.1292 28.4197 19.0447C28.2724 18.96 27.9297 18.7081 27.9297 18.1983V12.6461C30.3195 13.2112 32.4846 14.4574 34.187 16.2481ZM22.0703 12.6461V18.1983C22.0703 18.7081 21.7276 18.96 21.5803 19.0447C21.4328 19.1293 21.0425 19.2985 20.6015 19.0413L15.8129 16.2481C17.5152 14.4575 19.6805 13.2111 22.0703 12.6461ZM12.3047 25C12.3047 23.7354 12.4892 22.4977 12.8528 21.3063L17.7383 24.1561C18.1757 24.4113 18.2229 24.8314 18.2229 25.0001C18.2229 25.1689 18.1758 25.5889 17.7385 25.8441L12.8528 28.6939C12.4892 27.5026 12.3047 26.2648 12.3047 25ZM22.0703 37.3539C19.6805 36.7889 17.5154 35.5427 15.813 33.752L20.6014 30.9588C21.0427 30.7015 21.433 30.8707 21.5803 30.9554C21.7276 31.0401 22.0703 31.2919 22.0703 31.8018V37.3539V37.3539ZM27.9297 37.3539V31.8018C27.9297 31.2919 28.2724 31.0401 28.4197 30.9554C28.5672 30.8707 28.9576 30.7016 29.3985 30.9587L34.1871 33.752C32.4849 35.5425 30.3196 36.7888 27.9297 37.3539ZM35.4359 32.2192L30.3827 29.2715C29.4651 28.7364 28.3676 28.7328 27.4469 29.2617C26.5262 29.7907 25.9766 30.7402 25.9766 31.8018V37.6569C25.3275 37.7062 24.6723 37.7062 24.0234 37.6569V31.8018C24.0234 30.7402 23.4738 29.7907 22.5532 29.2619C21.6323 28.7328 20.5349 28.7366 19.6173 29.2717L14.5642 32.2194C14.1913 31.6827 13.861 31.1192 13.5761 30.533L18.7227 27.5311C19.6327 27 20.1761 26.0539 20.1761 25.0001C20.1761 23.9463 19.6328 23.0002 18.7225 22.4692L13.576 19.4672C13.8609 18.8811 14.1911 18.3176 14.5641 17.7807L19.6173 20.7284C20.079 20.9976 20.5862 21.1323 21.0936 21.1323C21.5945 21.1323 22.0957 21.0009 22.5531 20.7381C23.4738 20.2094 24.0234 19.2599 24.0234 18.1983V12.343C24.3485 12.3182 24.6748 12.3047 25 12.3047C25.3252 12.3047 25.6516 12.3182 25.9766 12.343V18.1983C25.9766 19.2599 26.5262 20.2094 27.4468 20.7382C27.9043 21.001 28.4054 21.1324 28.9063 21.1324C29.4137 21.1324 29.921 20.9977 30.3827 20.7284L35.4358 17.7807C35.8087 18.3174 36.139 18.8809 36.4239 19.467L31.2773 22.469C30.3673 23 29.8239 23.9461 29.8239 24.9999C29.8239 26.0537 30.3672 26.9998 31.2775 27.5309L36.424 30.5329C36.1391 31.1189 35.8089 31.6824 35.4359 32.2192ZM32.2617 25.844C31.8243 25.5888 31.7771 25.1687 31.7771 24.9999C31.7771 24.8312 31.8242 24.4112 32.2615 24.156L37.1472 21.3063C37.5108 22.4975 37.6953 23.7353 37.6953 25C37.6953 26.2647 37.5108 27.5024 37.1472 28.6938L32.2617 25.844Z" fill="#429EC9"/>
<path d="M25 22.0703C23.3846 22.0703 22.0703 23.3846 22.0703 25C22.0703 26.6154 23.3846 27.9297 25 27.9297C26.6154 27.9297 27.9297 26.6154 27.9297 25C27.9297 23.3846 26.6154 22.0703 25 22.0703ZM25 25.9766C24.4615 25.9766 24.0234 25.5385 24.0234 25C24.0234 24.4615 24.4615 24.0234 25 24.0234C25.5385 24.0234 25.9766 24.4615 25.9766 25C25.9766 25.5385 25.5385 25.9766 25 25.9766Z" fill="#429EC9"/>
</svg>
